<?xml version="1.0" encoding="utf-8"?>
<!-- Generator: Adobe Illustrator 22.0.1, SVG Export Plug-In . SVG Version: 6.00 Build 0)  -->
<svg version="1.1" id="Layer_1" xmlns="http://www.w3.org/2000/svg" xmlns:xlink="http://www.w3.org/1999/xlink" x="0px" y="0px"
	 width="1000px" height="392.7427673px" viewBox="0 0 1000 392.7427673" enable-background="new 0 0 1000 392.7427673"
	 xml:space="preserve">
<g>
	<g>
		<polygon fill="#7E0004" points="905.5496216,0.5336179 853.7886353,0.5336179 944.5036621,196.905014 944.5036621,196.905014 
			851.6541748,392.7427673 903.9487915,392.7427673 991.9957275,196.905014 991.9957275,196.905014 		"/>
		<g>
			<polygon fill="#A61C20" points="1000,196.905014 913.553894,0.5336179 861.7929077,0.5336179 951.9743652,196.905014 
				951.9743652,196.905014 			"/>
			<polygon fill="#ED0439" points="911.4193726,392.7427673 1000,196.905014 951.9743652,196.905014 859.6584473,392.7427673 			"/>
		</g>
		<g>
			<polygon fill="#293277" points="928.4951782,196.3713989 928.4951782,196.3713989 928.4951782,196.3713989 
				928.4951782,196.3713989 928.4951782,196.3713989 838.8474121,0.5336179 0,0.5336179 0,196.905014 928.4951782,196.905014 			"/>
			
				<radialGradient id="SVGID_1_" cx="762.8355713" cy="954.9039307" r="536.9231567" gradientTransform="matrix(1 0 0 -1 0 1394.7427979)" gradientUnits="userSpaceOnUse">
				<stop  offset="0" style="stop-color:#1E8FB2"/>
				<stop  offset="1" style="stop-color:#164997"/>
			</radialGradient>
			<path fill="url(#SVGID_1_)" d="M153.1483459,392.7427673L153.1483459,392.7427673h685.1654053l90.1813965-195.8377533H0
				v42.6894379C0,324.4396973,68.8367157,392.7427673,153.1483459,392.7427673z"/>
		</g>
	</g>
	<g opacity="0.4">
		<path fill="#293277" d="M111.5261383,84.3116302c0-2.1344681,1.0672455-3.2017136,3.2017136-3.2017136
			c2.1344681-0.5336151,38.4204788-12.2732086,38.4204788-12.2732086s4.8025665-0.5336227,4.8025665,3.2017059
			s0,50.6937027,0,50.6937027h32.5506897c0,0,3.7353363,0.5336151,3.7353363,4.8025589c0,3.7353287,0,30.9498367,0,30.9498367
			s-0.5336151,3.2017212-3.7353363,3.2017212c-3.2016907,0-33.6179199,0-33.6179199,0s0,47.4919891,0,53.3618011
			c0,5.8697815,4.8025513,14.4076843,14.4076843,14.4076843c5.3361816,0,19.743866,0,21.8783264,0
			c2.1344757,0,3.2017059,2.6680908,3.2017059,5.3361816c0,3.2016907,0,26.1472778,0,28.8153687
			c0,2.134491-1.6008606,3.735321-4.8025818,3.735321c-3.2016907,0-21.3447113,0-30.416214,0
			c-12.806839,0-49.6264648-6.9370117-49.6264648-54.9626312C111.526123,212.3799591,111.526123,84.3116302,111.5261383,84.3116302z
			 M207.0437622,262.0064087c0,2.1344604,1.0672302,4.8025513,2.6680908,4.8025513
			c2.1344757,0,36.2860107-0.5335999,38.9541016-0.5335999c3.2016907,0,4.8025665,1.0672302,4.8025665-2.134491
			c0-3.2016907,0-90.7150269,0-90.7150269c8.0042572-9.6051178,38.4204865-10.6723633,40.5549469-10.6723633
			c2.134491,0,3.735321-2.6680908,3.735321-4.8025665c0-0.5336151,0-26.1472626,0-30.4162064
			c0-3.7353287-0.5335999-7.4706497-3.735321-7.4706497c-30.9498291,0-44.2902832,22.4119415-44.2902832,22.4119415
			s-5.3361664-14.9413147-6.4034119-16.5421677c-0.5336151-1.6008453-1.6008453-3.7353287-4.8025665-3.7353287
			c-3.2017059,0-24.0128174,0-26.1472931,0s-5.3361816,0.5336227-5.3361816,4.8025589
			C207.0437622,127.0010605,207.0437622,259.8719177,207.0437622,262.0064087z M343.1163025,160.6190033
			c12.2732239,0,15.4749451,8.5378876,15.4749451,11.2059631c0,2.6680908,0,8.5378723,0,8.5378723s-6.9370728,0-17.0757751,0
			c-26.6808777,0-57.6307373,5.3361816-57.6307373,42.1558228c0,28.2817535,17.0757751,46.9583893,43.7566833,46.9583893
			c21.8783264,0,37.353241-16.54216,37.353241-16.54216l5.869812,13.8740692c0,0,29.3489685,0,31.4834595,0
			s2.6680908-2.134491,2.6680908-4.2689514s0.5335999-20.2774658,0-83.7780151
			c-0.5335999-64.0341492-50.1600952-56.0298767-56.5635071-56.0298767c-6.4033813,0-34.1515503,0-36.2860107,0
			s-4.2689209,0.5336151-4.2689209,2.6680832c0,2.1344757,0,27.7481461,0,30.4162216
			c0,2.6680908,1.0672302,4.8025665,3.735321,4.8025665C311.6328735,160.6190033,329.2422485,160.6190033,343.1163025,160.6190033z
			 M359.1248474,228.9220886c-2.134491,3.7353363-23.479187,12.806839-27.2145081,1.0672455
			c-4.2689514-15.4749298,11.739563-19.743866,17.0757446-20.2774811c3.2017212,0,10.1387634,0,10.1387634,0
			S359.1248474,226.7876129,359.1248474,228.9220886z M448.7726746,266.80896h54.4290161
			c0,0,41.0885315-138.2070465,41.6222229-139.8079071c0.5335693-1.600853,0.5335693-4.8025589-2.1345215-4.8025589
			s-36.2860107,0-38.9541016,0s-4.8025818,0.5336227-5.8697815,3.2017059
			c-0.5335999,2.6680984-20.2774963,105.1227341-20.2774963,105.1227341s-19.743866-99.7865448-20.2774963-103.5218735
			c-0.5336304-3.2017059-1.6008911-5.336174-3.735321-5.336174c-2.1344604,0-38.9541321,0-42.1558228,0
			s-4.8025513,2.6680908-3.7352905,5.8697968L448.7726746,266.80896z M679.2955933,213.9807892
			c0,45.8911591,40.5549927,52.8281708,49.0928345,52.8281708c8.5379028,0,20.8110962,0,24.0128174,0
			s4.8024902-1.0672607,4.8024902-3.7353516c0-2.6680603,0-27.2144928,0-29.3489685
			c0-2.6680908-1.0671997-4.8025665-3.2017212-4.8025665c-2.1343994,0-4.8024902,0-14.4076538,0
			s-14.4076538-9.0715179-14.4076538-13.8740692c0-5.3361664,0-141.4087524,0-143.5432129s-1.6008911-4.8025589-4.2689819-3.735321
			c-2.1344604,0.5336151-36.8195801,12.2732086-39.4876709,13.3404465
			c-2.6680908,1.0672302-3.7353516,3.2017059-3.7353516,4.8025589
			C678.2283936,84.845253,679.2955933,167.5560303,679.2955933,213.9807892z M608.8580322,120.5976563
			c-24.0128174,0-65.6350098,13.8740692-65.6350098,77.9082336c0,59.7651978,49.6264648,70.437561,72.0384521,70.437561
			c22.4119263,0,39.4877319-9.6051025,41.6221924-10.6723633c2.1344604-1.6008301,3.7352905-2.1344604,2.6680908-5.3361664
			c-4.8025513-12.806839-4.8025513-13.3404541-10.6723633-27.7481384c-1.0671997-2.6680908-2.1344604-2.6680908-4.8025513-1.6008606
			c-2.6680908,0.5336151-13.3404541,5.8697968-29.8826294,5.8697968c-26.6809082,0-25.6136475-19.743866-25.6136475-19.743866
			h80.5762939C671.2913208,127.5346832,632.8708496,120.5976563,608.8580322,120.5976563z M622.7321167,180.8964691h-34.1515503
			c0,0,0-27.2145081,18.1430054-27.2145081C623.265686,154.2155762,622.7321167,180.8964691,622.7321167,180.8964691z"/>
		<g>
			<path fill="#293277" d="M488.7940063,298.8260193l3.735321-6.9370117c0,0-10.6723633-7.4706726-22.9455872-1.6008606
				c-13.874054,6.9370422-11.7395935,30.4162292-8.5378723,35.7524109
				c3.2016907,5.8697815,10.1387329,17.609375,31.4834595,8.5378723l-3.735321-6.9370117
				c0,0-9.0714722,5.8697815-16.0085144,0.5335999c-6.9370728-5.8697815-5.869812-21.8783264-2.134491-27.2145081
				C474.3863525,295.6243286,483.4578247,295.6243286,488.7940063,298.8260193z"/>
			<polygon fill="#293277" points="501.0672302,289.2209167 509.6051331,289.2209167 509.6051331,309.4983826 
				527.2144775,309.4983826 527.2144775,289.2209167 536.2860107,289.2209167 536.2860107,338.3137512 527.2144775,338.3137512 
				527.2144775,317.502655 509.6051331,317.502655 509.6051331,338.3137512 501.0672302,338.3137512 			"/>
			<path fill="#293277" d="M558.697937,289.2209167h10.1387939l15.4749146,49.6264648h-9.6051636l-3.7352905-10.6723633h-16.5421753
				l-3.2016602,10.6723633h-8.5379028L558.697937,289.2209167z M557.6307373,320.1707458h12.2732544l-6.4034424-20.8110962
				C563.5005493,299.3596497,557.0971069,320.1707458,557.6307373,320.1707458z"/>
			<polygon fill="#293277" points="592.315918,289.2209167 600.8537598,289.2209167 618.9968262,321.2379761 
				618.9968262,289.2209167 628.0682983,289.2209167 628.0682983,338.3137512 619.5303955,338.3137512 600.8537598,305.2294617 
				601.3873901,338.3137512 592.315918,338.3137512 			"/>
			<polygon fill="#293277" points="649.4130249,338.3137512 640.3414917,338.3137512 640.3414917,289.2209167 
				649.4130249,289.2209167 667.5560303,321.7716064 667.5560303,289.2209167 676.6275024,289.2209167 676.6275024,338.3137512 
				667.5560303,338.3137512 649.4130249,305.2294617 			"/>
			<polygon fill="#293277" points="688.3670654,338.3137512 688.3670654,289.2209167 718.2496948,289.2209167 
				718.2496948,296.6915588 697.4386597,296.6915588 697.4386597,309.4983826 713.9807739,309.4983826 713.9807739,317.502655 
				697.4386597,317.502655 697.4386597,330.3094788 718.2496948,330.3094788 718.2496948,338.3137512 			"/>
			<polygon fill="#293277" points="728.3884277,289.2209167 737.460022,289.2209167 737.460022,330.8431091 756.670166,330.8431091 
				756.670166,338.3137512 728.3884277,338.3137512 			"/>
		</g>
	</g>
	<polygon opacity="0.3" fill="#FFFFFF" enable-background="new    " points="928.4951782,196.3713989 838.8474121,0.5336179 
		826.5741577,0.5336179 915.6883545,196.3713989 915.6883545,196.3713989 915.6883545,196.3713989 915.6883545,196.3713989 
		915.6883545,196.905014 826.0405273,392.7427673 838.3137817,392.7427673 928.4951782,196.905014 928.4951782,196.3713989 
		928.4951782,196.3713989 	"/>
	<g>
		
			<linearGradient id="SVGID_2_" gradientUnits="userSpaceOnUse" x1="437.2998657" y1="1100.5843506" x2="437.2998657" y2="1239.9925537" gradientTransform="matrix(1 0 0 -1 0 1394.7427979)">
			<stop  offset="0" style="stop-color:#FFFFFF"/>
			<stop  offset="1" style="stop-color:#CCCCCC"/>
		</linearGradient>
		<path fill="url(#SVGID_2_)" d="M114.7278519,88.0469589c0-2.1344681,1.0672379-3.2017059,3.2017059-3.2017059
			c2.1344757-0.5336227,38.4204941-12.2732162,38.4204941-12.2732162s4.8025665-0.5336227,4.8025665,3.2017059
			s0,50.6937027,0,50.6937027h32.5506897c0,0,3.7353363,0.5336151,3.7353363,4.8025589c0,3.735321,0,30.9498444,0,30.9498444
			s0,2.6680908-3.2017212,2.6680908c-3.2017059,0-33.6179352,0-33.6179352,0s0,47.4920044,0,53.3617859
			c0,5.8697968,4.8025665,14.4076996,14.4076996,14.4076996c5.3361664,0,19.743866,0,21.8783264,0
			c2.1344757,0,3.2016907,2.6680756,3.2016907,5.3361664c0,3.2017059,0,26.1472778,0,28.8153687
			c0,2.134491-1.6008453,3.7353516-4.8025665,3.7353516c-3.2017059,0-21.3447113,0-30.4162292,0
			c-12.8068237,0-49.6264572-6.9370422-49.6264572-54.9626465V88.0469589H114.7278519z M210.2454529,265.7417297
			c0,2.134491,1.0672455,4.8025818,2.6680908,4.8025818c2.1344757,0,36.2860107-0.5336304,38.9541016-0.5336304
			c3.2017059,0,4.8025818,1.0672607,4.8025818-2.1344604s0-90.7150574,0-90.7150574
			c8.0042725-9.6051178,38.4205017-10.6723633,40.5549316-10.6723633c2.134491,0,3.7353516-2.6680756,3.7353516-4.8025513
			c0-0.5336151,0-26.1472778,0-30.416214c0-3.7353287-0.5336304-7.4706497-3.7353516-7.4706497
			c-30.9498291,0-44.2902679,22.4119492-44.2902679,22.4119492s-6.4034119-15.4749146-7.4706573-17.0757751
			c-0.5336151-1.600853-1.6008453-3.7353363-4.8025665-3.7353363c-3.2017059,0-24.0128174,0-26.1472931,0
			s-5.3361816,0.5336227-5.3361816,4.8025665C209.711853,130.7363892,210.2454529,263.6072388,210.2454529,265.7417297z
			 M346.3180542,164.8879395c12.2732239,0,15.4749146,8.5378723,15.4749146,11.2059631s0,8.5378876,0,8.5378876
			s-6.9370422,0-17.0757446,0c-26.6809082,0-57.6307373,5.3361664-57.6307373,42.1558228
			c0,28.2817383,17.0757751,46.9583588,43.7566833,46.9583588c21.8783264,0,37.353241-16.5421448,37.353241-16.5421448
			l5.8697815,13.874054c0,0,29.348999,0,31.48349,0c2.1344604,0,2.6680908-2.1344604,2.6680908-4.2689209
			c0-2.134491,0.5335999-20.2774811,0-83.7780304c-0.5336304-64.0341492-50.1600952-56.0298767-56.5635071-56.0298767
			s-34.1515503,0-36.2860107,0c-2.134491,0-4.2689514,0.5336227-4.2689514,2.6680908c0,2.1344757,0,27.7481384,0,30.4162292
			s1.0672607,4.8025513,3.7353516,4.8025513C314.3009644,164.8879395,331.9103394,164.8879395,346.3180542,164.8879395z
			 M362.3265991,232.6574249c-2.134491,3.735321-23.4792175,12.8068237-27.2145081,1.0672302
			c-4.2689514-15.4749298,11.739563-19.743866,17.0757446-20.2774811c3.2016907,0,10.1387634,0,10.1387634,0
			S362.3265991,230.522934,362.3265991,232.6574249z M451.4407654,270.544281h54.4290161
			c0,0,41.0885315-138.2070313,41.6222229-139.8078918c0.5335693-1.6008606,0.5335693-4.8025665-2.1345215-4.8025665
			s-36.2860107,0-38.9541016,0s-4.8025818,0.5336227-5.8697815,3.2017059
			c-1.0672302,2.6680908-20.2774658,105.1227417-20.2774658,105.1227417s-19.7438354-99.7865601-20.2774963-103.5218811
			c-0.5335999-3.2017059-1.6008606-5.336174-3.735321-5.336174s-38.9541016,0-42.1558228,0
			c-3.2016907,0-4.8025513,2.6680832-3.7352905,5.8698044L451.4407654,270.544281z M681.9636841,217.7161255
			c0,45.8911133,40.5549927,52.828186,49.0928345,52.828186c8.5379028,0,20.8110962,0,24.0128174,0
			s4.8024902-1.0672607,4.8024902-3.7353516s0-27.2144928,0-29.3489685c0-2.6680908-1.0671997-4.8025665-3.2017212-4.8025665
			c-2.1344604,0-4.8024902,0-14.4076538,0s-14.4076538-9.0715179-14.4076538-13.8740692c0-5.3361816,0-141.4087524,0-143.5432129
			s-1.6008911-4.8025589-4.2689819-3.7353287c-2.1344604,0.5336227-36.8195801,12.2732162-39.4876709,13.3404541
			s-3.7353516,3.2017136-3.7353516,4.8025589C681.4301147,89.1141891,681.9636841,171.8249664,681.9636841,217.7161255z
			 M611.526123,124.3329773c-24.0128174,0-65.6350098,13.8740692-65.6350098,77.9082184
			c0,59.765213,49.6264648,70.4375763,72.0384521,70.4375763c22.4119263,0,39.4877319-9.6051331,41.6221924-10.6723633
			c2.1344604-1.6008606,3.7352905-2.134491,2.6680908-5.3361816c-4.8025513-12.806839-4.8025513-13.3404541-10.6723633-27.7481384
			c-1.0671997-2.6680908-2.1344604-2.6680908-4.8025513-1.6008453c-2.6680908,0.5335999-13.3404541,5.8697815-29.8826294,5.8697815
			c-26.6809082,0-25.6136475-19.743866-25.6136475-19.743866h80.5762939
			C673.9594116,131.2700195,635.5389404,124.3329773,611.526123,124.3329773z M625.4002075,185.1654205h-34.1515503
			c0,0,0-27.2145233,18.1430054-27.2145233C625.9337769,157.9509125,625.4002075,185.1654205,625.4002075,185.1654205z"/>
		<g>
			
				<linearGradient id="SVGID_3_" gradientUnits="userSpaceOnUse" x1="478.2688293" y1="1100.5843506" x2="478.2688293" y2="1239.9925537" gradientTransform="matrix(1 0 0 -1 0 1394.7427979)">
				<stop  offset="0" style="stop-color:#FFFFFF"/>
				<stop  offset="1" style="stop-color:#CCCCCC"/>
			</linearGradient>
			<path fill="url(#SVGID_3_)" d="M491.4620972,303.0950012l3.735321-6.9370422c0,0-10.6723633-7.4706726-22.9455872-1.6008606
				c-13.874054,6.9370422-11.7395935,30.4162292-8.5378723,35.7524109
				c3.2016907,5.8697815,10.1387329,17.6094055,31.4834595,8.5378723l-3.735321-7.4706421
				c0,0-9.0714722,5.8697815-16.0085449,0.5335999c-6.9370422-5.8697815-5.8697815-21.8783264-2.1344604-27.2145081
				C477.0544434,299.89328,486.1259155,299.3596497,491.4620972,303.0950012z"/>
			
				<linearGradient id="SVGID_4_" gradientUnits="userSpaceOnUse" x1="521.3447266" y1="1100.5843506" x2="521.3447266" y2="1239.9925537" gradientTransform="matrix(1 0 0 -1 0 1394.7427979)">
				<stop  offset="0" style="stop-color:#FFFFFF"/>
				<stop  offset="1" style="stop-color:#CCCCCC"/>
			</linearGradient>
			<polygon fill="url(#SVGID_4_)" points="503.735321,292.9562378 512.2731934,292.9562378 512.2731934,313.767334 
				530.4162598,313.767334 530.4162598,292.9562378 538.9541016,292.9562378 538.9541016,342.5827332 530.4162598,342.5827332 
				530.4162598,321.7716064 512.2731934,321.7716064 512.2731934,342.5827332 503.735321,342.5827332 			"/>
			
				<linearGradient id="SVGID_5_" gradientUnits="userSpaceOnUse" x1="566.7022705" y1="1100.5843506" x2="566.7022705" y2="1239.9925537" gradientTransform="matrix(1 0 0 -1 0 1394.7427979)">
				<stop  offset="0" style="stop-color:#FFFFFF"/>
				<stop  offset="1" style="stop-color:#CCCCCC"/>
			</linearGradient>
			<path fill="url(#SVGID_5_)" d="M561.3660278,292.9562378h10.1387939l15.4749146,49.6264954h-9.6051636l-3.7352905-10.6723633
				h-15.4749146l-3.2017212,10.6723633h-8.5379028L561.3660278,292.9562378z M560.2988281,323.9060669h12.2732544
				l-6.4034424-20.8110962C566.1686401,303.0950012,560.2988281,323.9060669,560.2988281,323.9060669z"/>
			
				<linearGradient id="SVGID_6_" gradientUnits="userSpaceOnUse" x1="612.8601685" y1="1100.5843506" x2="612.8601685" y2="1239.9925537" gradientTransform="matrix(1 0 0 -1 0 1394.7427979)">
				<stop  offset="0" style="stop-color:#FFFFFF"/>
				<stop  offset="1" style="stop-color:#CCCCCC"/>
			</linearGradient>
			<polygon fill="url(#SVGID_6_)" points="594.9840088,292.9562378 603.5218506,292.9562378 622.1984863,325.5069275 
				622.1984863,292.9562378 630.7363892,292.9562378 630.7363892,342.5827332 622.1984863,342.5827332 604.055481,308.9647827 
				604.055481,342.5827332 594.9840088,342.5827332 			"/>
			
				<linearGradient id="SVGID_7_" gradientUnits="userSpaceOnUse" x1="661.4194336" y1="1100.5843506" x2="661.4194336" y2="1239.9925537" gradientTransform="matrix(1 0 0 -1 0 1394.7427979)">
				<stop  offset="0" style="stop-color:#FFFFFF"/>
				<stop  offset="1" style="stop-color:#CCCCCC"/>
			</linearGradient>
			<polygon fill="url(#SVGID_7_)" points="652.6146851,342.5827332 643.5432129,342.5827332 643.5432129,292.9562378 
				652.0811157,292.9562378 670.2241211,325.5069275 670.2241211,292.9562378 679.2955933,292.9562378 679.2955933,342.5827332 
				670.7576904,342.5827332 652.0811157,309.4983826 			"/>
			
				<linearGradient id="SVGID_8_" gradientUnits="userSpaceOnUse" x1="706.5101318" y1="1100.5843506" x2="706.5101318" y2="1239.9925537" gradientTransform="matrix(1 0 0 -1 0 1394.7427979)">
				<stop  offset="0" style="stop-color:#FFFFFF"/>
				<stop  offset="1" style="stop-color:#CCCCCC"/>
			</linearGradient>
			<polygon fill="url(#SVGID_8_)" points="691.5688477,342.5827332 691.5688477,292.9562378 721.4514771,292.9562378 
				721.4514771,300.4269104 700.1067505,300.4269104 700.1067505,313.767334 716.6488647,313.767334 716.6488647,321.2379761 
				700.1067505,321.2379761 700.1067505,334.5784302 721.4514771,334.5784302 721.4514771,342.5827332 			"/>
			
				<linearGradient id="SVGID_9_" gradientUnits="userSpaceOnUse" x1="745.4642334" y1="1100.5843506" x2="745.4642334" y2="1239.9925537" gradientTransform="matrix(1 0 0 -1 0 1394.7427979)">
				<stop  offset="0" style="stop-color:#FFFFFF"/>
				<stop  offset="1" style="stop-color:#CCCCCC"/>
			</linearGradient>
			<polygon fill="url(#SVGID_9_)" points="731.0565186,292.9562378 740.1281128,292.9562378 740.1281128,334.5784302 
				759.8719482,334.5784302 759.8719482,342.5827332 731.0565186,342.5827332 			"/>
		</g>
	</g>
	
		<linearGradient id="SVGID_10_" gradientUnits="userSpaceOnUse" x1="0" y1="1390.2070313" x2="829.2421875" y2="1390.2070313" gradientTransform="matrix(1 0 0 -1 0 1394.7427979)">
		<stop  offset="0" style="stop-color:#FFFFFF"/>
		<stop  offset="1" style="stop-color:#FFFFFF;stop-opacity:0"/>
	</linearGradient>
	<rect y="0.5336179" fill="url(#SVGID_10_)" width="829.2421875" height="8.0042686"/>
	<g>
		<g>
			<defs>
				<polygon id="SVGID_11_" points="0,0 0,197.4386292 941.8355713,197.4386292 941.8355713,197.4386292 928.4951782,197.4386292 
					838.3137817,0 				"/>
			</defs>
			<clipPath id="SVGID_12_">
				<use xlink:href="#SVGID_11_"  overflow="visible"/>
			</clipPath>
			
				<radialGradient id="SVGID_13_" cx="1181.1188965" cy="1442.769043" r="55.9101601" gradientTransform="matrix(4.8572998 0 0 -0.7976 -5261.5947266 1154.6610107)" gradientUnits="userSpaceOnUse">
				<stop  offset="0" style="stop-color:#FFFFFF;stop-opacity:0.8"/>
				<stop  offset="1" style="stop-color:#FFFFFF;stop-opacity:0"/>
			</radialGradient>
			
				<ellipse clip-path="url(#SVGID_12_)" fill="url(#SVGID_13_)" cx="475.4535522" cy="3.7353261" rx="271.6115112" ry="44.8239021"/>
		</g>
		<g>
			<defs>
				<polygon id="SVGID_14_" points="0,0 0,197.4386292 941.8355713,197.4386292 941.8355713,197.4386292 928.4951782,197.4386292 
					838.3137817,0 				"/>
			</defs>
			<clipPath id="SVGID_15_">
				<use xlink:href="#SVGID_14_"  overflow="visible"/>
			</clipPath>
			
				<radialGradient id="SVGID_16_" cx="1181.1188965" cy="1442.769043" r="26.4068489" gradientTransform="matrix(4.8572998 0 0 -0.7976 -5261.5947266 1154.6610107)" gradientUnits="userSpaceOnUse">
				<stop  offset="0" style="stop-color:#FFFFFF;stop-opacity:0.8"/>
				<stop  offset="1" style="stop-color:#FFFFFF;stop-opacity:0"/>
			</radialGradient>
			<ellipse clip-path="url(#SVGID_15_)" fill="url(#SVGID_16_)" cx="475.4535522" cy="3.7353256" rx="128.0682983" ry="20.8111"/>
		</g>
	</g>
</g>
</svg>
